<mxfile host="app.diagrams.net" modified="2020-10-10T11:48:11.769Z" agent="5.0 (Windows NT 10.0; Win64; x64) AppleWebKit/537.36 (KHTML, like Gecko) Chrome/85.0.4183.121 Safari/537.36" etag="mqHf_Srr3KMQHWrTkDM0" version="13.7.9" type="github">
  <diagram name="Page-1" id="2c0d36ab-eaac-3732-788b-9136903baeff">
    <mxGraphModel dx="868" dy="482" grid="1" gridSize="10" guides="0" tooltips="1" connect="1" arrows="1" fold="1" page="1" pageScale="1.5" pageWidth="2000" pageHeight="2000" background="#ffffff" math="0" shadow="0">
      <root>
        <mxCell id="0" />
        <mxCell id="1" parent="0" />
        <mxCell id="123" value="" style="fillColor=#AE4132;strokeColor=none;opacity=30;" parent="1" vertex="1">
          <mxGeometry x="747" y="175.50000000000003" width="210" height="99.99999999999994" as="geometry" />
        </mxCell>
        <mxCell id="120" value="" style="fillColor=#F2931E;strokeColor=none;opacity=30;" parent="1" vertex="1">
          <mxGeometry x="967" y="445.5" width="150" height="90" as="geometry" />
        </mxCell>
        <mxCell id="112" value="" style="fillColor=#10739E;strokeColor=none;opacity=30;" parent="1" vertex="1">
          <mxGeometry x="226.99999999999997" y="895.5" width="150" height="80" as="geometry" />
        </mxCell>
        <mxCell id="2" value="Software Services" style="rounded=1;fillColor=#23445D;gradientColor=none;strokeColor=none;fontColor=#FFFFFF;fontStyle=1;fontFamily=Tahoma;fontSize=14" parent="1" vertex="1">
          <mxGeometry x="1000" y="200" width="190" height="80" as="geometry" />
        </mxCell>
        <mxCell id="3CG3S3d7M33r0J2i_Veg-166" value="" style="edgeStyle=orthogonalEdgeStyle;rounded=0;orthogonalLoop=1;jettySize=auto;html=1;" edge="1" parent="1" source="4" target="3CG3S3d7M33r0J2i_Veg-165">
          <mxGeometry relative="1" as="geometry" />
        </mxCell>
        <mxCell id="4" value="Company Product Development" style="rounded=1;fillColor=#23445D;gradientColor=none;strokeColor=none;fontColor=#FFFFFF;fontStyle=1;fontFamily=Tahoma;fontSize=14" parent="1" vertex="1">
          <mxGeometry x="1290" y="320" width="248" height="95.5" as="geometry" />
        </mxCell>
        <mxCell id="9" value="" style="edgeStyle=elbowEdgeStyle;elbow=vertical;strokeWidth=2;rounded=0" parent="1" source="2" target="4" edge="1">
          <mxGeometry x="337" y="215.5" width="100" height="100" as="geometry">
            <mxPoint x="337" y="315.5" as="sourcePoint" />
            <mxPoint x="437" y="215.5" as="targetPoint" />
          </mxGeometry>
        </mxCell>
        <mxCell id="10" value="Mobile Apps Development" style="rounded=1;fillColor=#23445D;gradientColor=none;strokeColor=none;fontColor=#FFFFFF;fontStyle=1;fontFamily=Tahoma;fontSize=14" parent="1" vertex="1">
          <mxGeometry x="947" y="335.5" width="190" height="80" as="geometry" />
        </mxCell>
        <mxCell id="12" value="Web Apps Development" style="rounded=1;fillColor=#23445D;gradientColor=none;strokeColor=none;fontColor=#FFFFFF;fontStyle=1;fontFamily=Tahoma;fontSize=14" parent="1" vertex="1">
          <mxGeometry x="579.9999999999999" y="335.5" width="190" height="80" as="geometry" />
        </mxCell>
        <mxCell id="25" value="Backend" style="rounded=1;fillColor=#23445D;gradientColor=none;strokeColor=none;fontColor=#FFFFFF;fontStyle=1;fontFamily=Tahoma;fontSize=14" parent="1" vertex="1">
          <mxGeometry x="417" y="455.5" width="130" height="60" as="geometry" />
        </mxCell>
        <mxCell id="26" value="Python" style="rounded=1;fillColor=#23445D;gradientColor=none;strokeColor=none;fontColor=#FFFFFF;fontStyle=1;fontFamily=Tahoma;fontSize=14" parent="1" vertex="1">
          <mxGeometry x="417" y="545.5" width="130" height="60" as="geometry" />
        </mxCell>
        <mxCell id="27" value="Node" style="rounded=1;fillColor=#23445D;gradientColor=none;strokeColor=none;fontColor=#FFFFFF;fontStyle=1;fontFamily=Tahoma;fontSize=14" parent="1" vertex="1">
          <mxGeometry x="417" y="635.5" width="130" height="60" as="geometry" />
        </mxCell>
        <mxCell id="29" value="Front End" style="rounded=1;fillColor=#23445D;gradientColor=none;strokeColor=none;fontColor=#FFFFFF;fontStyle=1;fontFamily=Tahoma;fontSize=14" parent="1" vertex="1">
          <mxGeometry x="592" y="455.5" width="130" height="60" as="geometry" />
        </mxCell>
        <mxCell id="30" value="Angular" style="rounded=1;fillColor=#23445D;gradientColor=none;strokeColor=none;fontColor=#FFFFFF;fontStyle=1;fontFamily=Tahoma;fontSize=14" parent="1" vertex="1">
          <mxGeometry x="592" y="545.5" width="130" height="60" as="geometry" />
        </mxCell>
        <mxCell id="31" value="React" style="rounded=1;fillColor=#23445D;gradientColor=none;strokeColor=none;fontColor=#FFFFFF;fontStyle=1;fontFamily=Tahoma;fontSize=14" parent="1" vertex="1">
          <mxGeometry x="592" y="635.5" width="130" height="60" as="geometry" />
        </mxCell>
        <mxCell id="41" value="React Native" style="rounded=1;fillColor=#23445D;gradientColor=none;strokeColor=none;fontColor=#FFFFFF;fontStyle=1;fontFamily=Tahoma;fontSize=14" parent="1" vertex="1">
          <mxGeometry x="977" y="455.5" width="130" height="60" as="geometry" />
        </mxCell>
        <mxCell id="59" value="" style="edgeStyle=elbowEdgeStyle;elbow=vertical;strokeWidth=2;rounded=0" parent="1" source="2" target="12" edge="1">
          <mxGeometry x="347" y="225.5" width="100" height="100" as="geometry">
            <mxPoint x="861.9999999999999" y="275.5" as="sourcePoint" />
            <mxPoint x="1466.9999999999998" y="345.5" as="targetPoint" />
          </mxGeometry>
        </mxCell>
        <mxCell id="70" value="" style="edgeStyle=elbowEdgeStyle;elbow=horizontal;strokeWidth=2;rounded=0" parent="1" source="25" target="26" edge="1">
          <mxGeometry x="-23" y="135.5" width="100" height="100" as="geometry">
            <mxPoint x="-23" y="235.5" as="sourcePoint" />
            <mxPoint x="77" y="135.5" as="targetPoint" />
            <Array as="points">
              <mxPoint x="397" y="535.5" />
            </Array>
          </mxGeometry>
        </mxCell>
        <mxCell id="71" value="" style="edgeStyle=elbowEdgeStyle;elbow=horizontal;strokeWidth=2;rounded=0" parent="1" source="25" target="27" edge="1">
          <mxGeometry x="-23" y="135.5" width="100" height="100" as="geometry">
            <mxPoint x="-23" y="235.5" as="sourcePoint" />
            <mxPoint x="77" y="135.5" as="targetPoint" />
            <Array as="points">
              <mxPoint x="397" y="575.5" />
            </Array>
          </mxGeometry>
        </mxCell>
        <mxCell id="73" value="" style="edgeStyle=elbowEdgeStyle;elbow=horizontal;strokeWidth=2;rounded=0" parent="1" source="29" target="30" edge="1">
          <mxGeometry x="-23" y="135.5" width="100" height="100" as="geometry">
            <mxPoint x="-23" y="235.5" as="sourcePoint" />
            <mxPoint x="77" y="135.5" as="targetPoint" />
            <Array as="points">
              <mxPoint x="567" y="535.5" />
            </Array>
          </mxGeometry>
        </mxCell>
        <mxCell id="74" value="" style="edgeStyle=elbowEdgeStyle;elbow=horizontal;strokeWidth=2;rounded=0" parent="1" source="29" target="31" edge="1">
          <mxGeometry x="-23" y="135.5" width="100" height="100" as="geometry">
            <mxPoint x="-23" y="235.5" as="sourcePoint" />
            <mxPoint x="77" y="135.5" as="targetPoint" />
            <Array as="points">
              <mxPoint x="567" y="575.5" />
            </Array>
          </mxGeometry>
        </mxCell>
        <mxCell id="100" value="" style="edgeStyle=elbowEdgeStyle;elbow=vertical;strokeWidth=2;rounded=0" parent="1" source="12" target="25" edge="1">
          <mxGeometry x="-23" y="135.5" width="100" height="100" as="geometry">
            <mxPoint x="-23" y="235.5" as="sourcePoint" />
            <mxPoint x="77" y="135.5" as="targetPoint" />
          </mxGeometry>
        </mxCell>
        <mxCell id="101" value="" style="edgeStyle=elbowEdgeStyle;elbow=vertical;strokeWidth=2;rounded=0" parent="1" source="12" target="29" edge="1">
          <mxGeometry x="-23" y="135.5" width="100" height="100" as="geometry">
            <mxPoint x="-23" y="235.5" as="sourcePoint" />
            <mxPoint x="77" y="135.5" as="targetPoint" />
          </mxGeometry>
        </mxCell>
        <mxCell id="102" value="" style="edgeStyle=elbowEdgeStyle;elbow=vertical;strokeWidth=2;rounded=0" parent="1" source="12" edge="1">
          <mxGeometry x="-23" y="135.5" width="100" height="100" as="geometry">
            <mxPoint x="-23" y="235.5" as="sourcePoint" />
            <mxPoint x="832" y="455.5" as="targetPoint" />
          </mxGeometry>
        </mxCell>
        <mxCell id="103" value="" style="edgeStyle=elbowEdgeStyle;elbow=vertical;strokeWidth=2;rounded=0" parent="1" source="10" target="41" edge="1">
          <mxGeometry x="-23" y="135.5" width="100" height="100" as="geometry">
            <mxPoint x="-23" y="235.5" as="sourcePoint" />
            <mxPoint x="77" y="135.5" as="targetPoint" />
          </mxGeometry>
        </mxCell>
        <mxCell id="3CG3S3d7M33r0J2i_Veg-127" value="" style="edgeStyle=orthogonalEdgeStyle;rounded=0;orthogonalLoop=1;jettySize=auto;html=1;entryX=0;entryY=0.25;entryDx=0;entryDy=0;" edge="1" parent="1" source="3CG3S3d7M33r0J2i_Veg-124" target="3CG3S3d7M33r0J2i_Veg-128">
          <mxGeometry relative="1" as="geometry">
            <mxPoint x="746" y="700" as="targetPoint" />
            <Array as="points">
              <mxPoint x="740" y="480" />
              <mxPoint x="740" y="695" />
            </Array>
          </mxGeometry>
        </mxCell>
        <mxCell id="3CG3S3d7M33r0J2i_Veg-135" value="" style="edgeStyle=orthogonalEdgeStyle;rounded=0;orthogonalLoop=1;jettySize=auto;html=1;" edge="1" parent="1" source="3CG3S3d7M33r0J2i_Veg-124" target="3CG3S3d7M33r0J2i_Veg-125">
          <mxGeometry relative="1" as="geometry" />
        </mxCell>
        <mxCell id="3CG3S3d7M33r0J2i_Veg-124" value="Database" style="rounded=1;fillColor=#23445D;gradientColor=none;strokeColor=none;fontColor=#FFFFFF;fontStyle=1;fontFamily=Tahoma;fontSize=14" vertex="1" parent="1">
          <mxGeometry x="770" y="450" width="130" height="60" as="geometry" />
        </mxCell>
        <mxCell id="3CG3S3d7M33r0J2i_Veg-125" value="PostgreSQL" style="whiteSpace=wrap;html=1;rounded=1;fontFamily=Tahoma;fontSize=14;fontColor=#FFFFFF;fontStyle=1;strokeColor=none;fillColor=#23445D;" vertex="1" parent="1">
          <mxGeometry x="775" y="590" width="120" height="60" as="geometry" />
        </mxCell>
        <mxCell id="3CG3S3d7M33r0J2i_Veg-128" value="MySQL&lt;br&gt;" style="whiteSpace=wrap;html=1;rounded=1;fontFamily=Tahoma;fontSize=14;fontColor=#FFFFFF;fontStyle=1;strokeColor=none;fillColor=#23445D;" vertex="1" parent="1">
          <mxGeometry x="775" y="680" width="120" height="60" as="geometry" />
        </mxCell>
        <mxCell id="3CG3S3d7M33r0J2i_Veg-130" value="MongoDB" style="whiteSpace=wrap;html=1;rounded=1;fontFamily=Tahoma;fontSize=14;fontColor=#FFFFFF;fontStyle=1;strokeColor=none;fillColor=#23445D;" vertex="1" parent="1">
          <mxGeometry x="770" y="790" width="120" height="60" as="geometry" />
        </mxCell>
        <mxCell id="3CG3S3d7M33r0J2i_Veg-132" value="FireBase" style="whiteSpace=wrap;html=1;rounded=1;fontFamily=Tahoma;fontSize=14;fontColor=#FFFFFF;fontStyle=1;strokeColor=none;fillColor=#23445D;" vertex="1" parent="1">
          <mxGeometry x="775" y="960" width="120" height="60" as="geometry" />
        </mxCell>
        <mxCell id="3CG3S3d7M33r0J2i_Veg-138" value="" style="endArrow=classic;html=1;entryX=0;entryY=0.5;entryDx=0;entryDy=0;" edge="1" parent="1" target="3CG3S3d7M33r0J2i_Veg-125">
          <mxGeometry width="50" height="50" relative="1" as="geometry">
            <mxPoint x="740" y="620" as="sourcePoint" />
            <mxPoint x="780" y="610" as="targetPoint" />
          </mxGeometry>
        </mxCell>
        <mxCell id="3CG3S3d7M33r0J2i_Veg-140" value="" style="endArrow=classic;html=1;" edge="1" parent="1">
          <mxGeometry width="50" height="50" relative="1" as="geometry">
            <mxPoint x="740" y="700" as="sourcePoint" />
            <mxPoint x="770" y="980" as="targetPoint" />
            <Array as="points">
              <mxPoint x="740" y="980" />
            </Array>
          </mxGeometry>
        </mxCell>
        <mxCell id="3CG3S3d7M33r0J2i_Veg-142" value="" style="endArrow=classic;html=1;" edge="1" parent="1">
          <mxGeometry width="50" height="50" relative="1" as="geometry">
            <mxPoint x="740" y="820" as="sourcePoint" />
            <mxPoint x="770" y="820" as="targetPoint" />
          </mxGeometry>
        </mxCell>
        <mxCell id="3CG3S3d7M33r0J2i_Veg-149" value="" style="edgeStyle=orthogonalEdgeStyle;rounded=0;orthogonalLoop=1;jettySize=auto;html=1;" edge="1" parent="1" source="3CG3S3d7M33r0J2i_Veg-143" target="3CG3S3d7M33r0J2i_Veg-148">
          <mxGeometry relative="1" as="geometry" />
        </mxCell>
        <mxCell id="3CG3S3d7M33r0J2i_Veg-151" value="" style="edgeStyle=orthogonalEdgeStyle;rounded=0;orthogonalLoop=1;jettySize=auto;html=1;" edge="1" parent="1" source="3CG3S3d7M33r0J2i_Veg-143" target="3CG3S3d7M33r0J2i_Veg-150">
          <mxGeometry relative="1" as="geometry" />
        </mxCell>
        <mxCell id="3CG3S3d7M33r0J2i_Veg-145" value="" style="endArrow=classic;html=1;entryX=0.633;entryY=-0.013;entryDx=0;entryDy=0;entryPerimeter=0;" edge="1" parent="1" target="3CG3S3d7M33r0J2i_Veg-143">
          <mxGeometry width="50" height="50" relative="1" as="geometry">
            <mxPoint x="1410" y="300" as="sourcePoint" />
            <mxPoint x="1620" y="250" as="targetPoint" />
            <Array as="points">
              <mxPoint x="1855" y="300" />
              <mxPoint x="2295" y="300" />
            </Array>
          </mxGeometry>
        </mxCell>
        <mxCell id="3CG3S3d7M33r0J2i_Veg-148" value="Podio" style="whiteSpace=wrap;html=1;rounded=1;fontFamily=Tahoma;fontSize=14;fontColor=#FFFFFF;fontStyle=1;strokeColor=none;fillColor=#23445D;" vertex="1" parent="1">
          <mxGeometry x="2213" y="506.625" width="120" height="60" as="geometry" />
        </mxCell>
        <mxCell id="3CG3S3d7M33r0J2i_Veg-153" value="" style="edgeStyle=orthogonalEdgeStyle;rounded=0;orthogonalLoop=1;jettySize=auto;html=1;" edge="1" parent="1" source="3CG3S3d7M33r0J2i_Veg-150" target="3CG3S3d7M33r0J2i_Veg-152">
          <mxGeometry relative="1" as="geometry" />
        </mxCell>
        <mxCell id="3CG3S3d7M33r0J2i_Veg-155" value="" style="edgeStyle=orthogonalEdgeStyle;rounded=0;orthogonalLoop=1;jettySize=auto;html=1;" edge="1" parent="1" source="3CG3S3d7M33r0J2i_Veg-150" target="3CG3S3d7M33r0J2i_Veg-154">
          <mxGeometry relative="1" as="geometry" />
        </mxCell>
        <mxCell id="3CG3S3d7M33r0J2i_Veg-157" value="" style="edgeStyle=orthogonalEdgeStyle;rounded=0;orthogonalLoop=1;jettySize=auto;html=1;" edge="1" parent="1" source="3CG3S3d7M33r0J2i_Veg-150" target="3CG3S3d7M33r0J2i_Veg-156">
          <mxGeometry relative="1" as="geometry" />
        </mxCell>
        <mxCell id="3CG3S3d7M33r0J2i_Veg-150" value="Zoho" style="whiteSpace=wrap;html=1;rounded=1;fontFamily=Tahoma;fontSize=14;fontColor=#FFFFFF;fontStyle=1;strokeColor=none;fillColor=#23445D;" vertex="1" parent="1">
          <mxGeometry x="1960" y="510.005" width="120" height="60" as="geometry" />
        </mxCell>
        <mxCell id="3CG3S3d7M33r0J2i_Veg-152" value="Extensions Development" style="whiteSpace=wrap;html=1;rounded=1;fontFamily=Tahoma;fontSize=14;fontColor=#FFFFFF;fontStyle=1;strokeColor=none;fillColor=#23445D;" vertex="1" parent="1">
          <mxGeometry x="1960" y="650.005" width="120" height="60" as="geometry" />
        </mxCell>
        <mxCell id="3CG3S3d7M33r0J2i_Veg-154" value="CRM Customizations" style="whiteSpace=wrap;html=1;rounded=1;fontFamily=Tahoma;fontSize=14;fontColor=#FFFFFF;fontStyle=1;strokeColor=none;fillColor=#23445D;" vertex="1" parent="1">
          <mxGeometry x="1780" y="650.005" width="120" height="60" as="geometry" />
        </mxCell>
        <mxCell id="3CG3S3d7M33r0J2i_Veg-156" value="CRM Trainings" style="whiteSpace=wrap;html=1;rounded=1;fontFamily=Tahoma;fontSize=14;fontColor=#FFFFFF;fontStyle=1;strokeColor=none;fillColor=#23445D;" vertex="1" parent="1">
          <mxGeometry x="2120" y="650.005" width="120" height="60" as="geometry" />
        </mxCell>
        <mxCell id="3CG3S3d7M33r0J2i_Veg-164" value="" style="edgeStyle=orthogonalEdgeStyle;rounded=0;orthogonalLoop=1;jettySize=auto;html=1;" edge="1" parent="1" source="3CG3S3d7M33r0J2i_Veg-158" target="3CG3S3d7M33r0J2i_Veg-163">
          <mxGeometry relative="1" as="geometry" />
        </mxCell>
        <mxCell id="3CG3S3d7M33r0J2i_Veg-158" value="ECommerce Development" style="whiteSpace=wrap;html=1;rounded=1;fontFamily=Tahoma;fontSize=14;fontColor=#FFFFFF;fontStyle=1;strokeColor=none;fillColor=#23445D;" vertex="1" parent="1">
          <mxGeometry x="2459" y="348.875" width="120" height="60" as="geometry" />
        </mxCell>
        <mxCell id="3CG3S3d7M33r0J2i_Veg-160" value="" style="endArrow=classic;html=1;" edge="1" parent="1" source="3CG3S3d7M33r0J2i_Veg-143">
          <mxGeometry width="50" height="50" relative="1" as="geometry">
            <mxPoint x="2180" y="430" as="sourcePoint" />
            <mxPoint x="2230" y="380" as="targetPoint" />
            <Array as="points">
              <mxPoint x="2200" y="410" />
            </Array>
          </mxGeometry>
        </mxCell>
        <mxCell id="3CG3S3d7M33r0J2i_Veg-143" value="Customer Relationship Management" style="whiteSpace=wrap;html=1;rounded=1;fontFamily=Tahoma;fontSize=14;fontColor=#FFFFFF;fontStyle=1;strokeColor=none;fillColor=#23445D;" vertex="1" parent="1">
          <mxGeometry x="2190" y="340" width="166" height="77.75" as="geometry" />
        </mxCell>
        <mxCell id="3CG3S3d7M33r0J2i_Veg-162" value="" style="endArrow=classic;html=1;entryX=0.583;entryY=-0.065;entryDx=0;entryDy=0;entryPerimeter=0;" edge="1" parent="1" target="3CG3S3d7M33r0J2i_Veg-158">
          <mxGeometry width="50" height="50" relative="1" as="geometry">
            <mxPoint x="2290" y="300" as="sourcePoint" />
            <mxPoint x="2440" y="270" as="targetPoint" />
            <Array as="points">
              <mxPoint x="2529" y="300" />
            </Array>
          </mxGeometry>
        </mxCell>
        <mxCell id="3CG3S3d7M33r0J2i_Veg-163" value="Shopify" style="whiteSpace=wrap;html=1;rounded=1;fontFamily=Tahoma;fontSize=14;fontColor=#FFFFFF;fontStyle=1;strokeColor=none;fillColor=#23445D;" vertex="1" parent="1">
          <mxGeometry x="2459" y="488.875" width="120" height="60" as="geometry" />
        </mxCell>
        <mxCell id="3CG3S3d7M33r0J2i_Veg-165" value="Custom CRM" style="whiteSpace=wrap;html=1;rounded=1;fontFamily=Tahoma;fontSize=14;fontColor=#FFFFFF;fontStyle=1;strokeColor=none;fillColor=#23445D;" vertex="1" parent="1">
          <mxGeometry x="1354" y="513.25" width="120" height="60" as="geometry" />
        </mxCell>
      </root>
    </mxGraphModel>
  </diagram>
</mxfile>
